<?xml version="1.0" encoding="UTF-8"?>
<svg id="Cencora_Innomar" data-name="Cencora Innomar" xmlns="http://www.w3.org/2000/svg" viewBox="0 0 400 70">
  <defs>
    <style>
      .cls-1 {
        fill: #461e96;
      }

      .cls-1, .cls-2 {
        stroke-width: 0px;
      }

      .cls-2 {
        fill: #3b3b3b;
      }
    </style>
  </defs>
  <path class="cls-1" d="m230.36.68v4.39C227.66,1.82,223.67,0,219.01,0,209.62,0,202.8,7.43,202.8,16.82s6.82,16.82,16.21,16.82c4.66,0,8.65-1.82,11.35-5.07v4.39h5.94V.68h-5.94Zm-10.67,27.02c-6.35,0-10.67-4.66-10.67-10.88s4.32-10.88,10.67-10.88,10.67,4.66,10.67,10.88-4.32,10.88-10.67,10.88ZM196.99.14l3.65,5.81c-6.35,0-9.46,2.57-9.46,7.77v19.25h-6.08V12.84c0-7.16,4.19-11.96,11.89-12.7h0Zm-34.72-.14c-9.73,0-16.89,7.43-16.89,16.82s7.16,16.82,16.89,16.82,16.89-7.43,16.89-16.82S171.99,0,162.26,0Zm0,27.7c-6.35,0-10.67-4.66-10.67-10.88s4.32-10.88,10.67-10.88,10.67,4.66,10.67,10.88-4.32,10.88-10.67,10.88Zm-45.94-10.88c0,6.21,4.26,10.88,10.47,10.88,4.32,0,7.63-2.03,9.46-5.4l4.93,3.45c-2.77,4.73-8.04,7.9-14.39,7.9-9.52,0-16.69-7.43-16.69-16.82S117.27,0,126.8,0c6.35,0,11.62,3.17,14.39,7.9l-4.93,3.45c-1.82-3.38-5.13-5.4-9.46-5.4-6.21,0-10.47,4.66-10.47,10.88Zm-12.16-2.57v18.71h-6.08V14.66c0-5.54-2.84-8.71-8.71-8.71s-8.71,3.17-8.71,8.71v18.31h-6.08V14.25c0-8.58,5.34-14.25,14.79-14.25s14.79,5.67,14.79,14.25h0Zm-35.53,2.63c0,.74,0,1.55-.07,2.5h-22.23l3.51-5.54h12.23c-.74-4.86-4.73-7.9-10.07-7.9-6.22,0-10.54,4.66-10.54,10.88s4.32,10.88,10.54,10.88c3.99,0,7.16-1.76,9.12-4.59l4.73,3.72c-2.9,4.12-7.84,6.82-13.85,6.82-9.66,0-16.75-7.36-16.75-16.82,0-9.39,7.16-16.82,16.75-16.82s16.62,7.16,16.62,16.89h0Zm-62.42-.07c0,6.21,4.26,10.88,10.47,10.88,4.32,0,7.63-2.03,9.46-5.4l4.93,3.45c-2.77,4.73-8.04,7.9-14.39,7.9C7.16,33.64,0,26.21,0,16.82S7.16,0,16.69,0c6.35,0,11.62,3.17,14.39,7.9l-4.93,3.45c-1.82-3.38-5.13-5.4-9.46-5.4-6.22,0-10.47,4.66-10.47,10.88h0Z"/>
  <path class="cls-2" d="m6.02,48.06v16.82h-2.23v-16.82h2.23Zm14.03,9.44v7.38h-2.09v-7.26c0-1.97-1.13-3.08-2.98-3.08s-3.48,1.13-3.48,3.97v6.37h-2.09v-12.02h2.09v1.73c.89-1.42,2.21-2.04,3.89-2.04,2.81,0,4.66,1.87,4.66,4.95h0Zm13.55,0v7.38h-2.09v-7.26c0-1.97-1.13-3.08-2.98-3.08s-3.48,1.13-3.48,3.97v6.37h-2.09v-12.02h2.09v1.73c.89-1.42,2.21-2.04,3.89-2.04,2.81,0,4.66,1.87,4.66,4.95h0Zm2.23,1.37c0-3.56,2.81-6.32,6.32-6.32s6.34,2.76,6.34,6.32-2.84,6.32-6.34,6.32-6.32-2.76-6.32-6.32h0Zm10.57,0c0-2.43-1.85-4.28-4.25-4.28s-4.23,1.85-4.23,4.28,1.85,4.28,4.23,4.28,4.25-1.85,4.25-4.28h0Zm22.06-1.47v7.47h-2.09v-7.4c0-1.9-1.06-2.93-2.64-2.93-1.68,0-2.96,1.06-2.96,3.65v6.68h-2.09v-7.4c0-1.9-.99-2.93-2.55-2.93s-3.08,1.06-3.08,3.65v6.68h-2.09v-12.02h2.09v1.61c.87-1.35,2.11-1.92,3.58-1.92,1.63,0,2.84.74,3.53,2.04.84-1.37,2.21-2.04,3.77-2.04,2.67,0,4.52,1.85,4.52,4.85h0Zm14.95-4.54v12.02h-2.09v-2.07c-.96,1.47-2.5,2.38-4.54,2.38-3.34,0-6.08-2.76-6.08-6.32s2.74-6.32,6.08-6.32c2.04,0,3.58.91,4.54,2.38v-2.07h2.09Zm-2.09,6.01c0-2.45-1.85-4.3-4.28-4.3s-4.25,1.85-4.25,4.3,1.85,4.3,4.25,4.3,4.28-1.85,4.28-4.3h0Zm11.1-6.22v2.19c-1.8-.07-3.75.84-3.75,3.68v6.37h-2.09v-12.02h2.09v2.02c.77-1.68,2.23-2.24,3.75-2.24h0Zm7.33,8.41l1.92-1.11c.6,1.85,2.04,3.05,4.49,3.05s3.56-1.08,3.56-2.6c0-1.73-1.49-2.31-3.97-3.08-2.69-.87-5.29-1.71-5.29-4.83s2.48-4.76,5.29-4.76,4.76,1.56,5.7,3.68l-1.87,1.08c-.6-1.44-1.78-2.6-3.82-2.6-1.8,0-3.05.96-3.05,2.5s1.18,2.14,3.53,2.88c2.93.96,5.7,1.83,5.7,5.07,0,2.96-2.38,4.83-5.82,4.83-3.2,0-5.48-1.61-6.37-4.13h0Zm17.59-6.18v6.51c0,1.83,1.06,1.71,3.2,1.61v1.87c-3.61.48-5.29-.48-5.29-3.48v-6.51h-2.38v-2.02h2.38v-2.74l2.09-.62v3.36h3.2v2.02h-3.2Zm11.58-2.24v2.19c-1.8-.07-3.75.84-3.75,3.68v6.37h-2.09v-12.02h2.09v2.02c.77-1.68,2.23-2.24,3.75-2.24h0Zm13.43.22v12.02h-2.09v-2.07c-.96,1.47-2.5,2.38-4.54,2.38-3.34,0-6.08-2.76-6.08-6.32s2.74-6.32,6.08-6.32c2.04,0,3.58.91,4.54,2.38v-2.07h2.09Zm-2.09,6.01c0-2.45-1.85-4.3-4.28-4.3s-4.25,1.85-4.25,4.3,1.85,4.3,4.25,4.3,4.28-1.85,4.28-4.3h0Zm8.6-3.99v6.51c0,1.83,1.06,1.71,3.2,1.61v1.87c-3.61.48-5.29-.48-5.29-3.48v-6.51h-2.38v-2.02h2.38v-2.74l2.09-.62v3.36h3.2v2.02h-3.2Zm10.89,8.34c1.66,0,2.86-.77,3.46-1.75l1.78,1.01c-1.06,1.63-2.88,2.72-5.29,2.72-3.87,0-6.44-2.72-6.44-6.32s2.55-6.32,6.3-6.32,5.98,2.98,5.98,6.34c0,.31-.02.62-.07.94h-10.07c.41,2.16,2.11,3.39,4.35,3.39h0Zm-4.35-5.21h8.03c-.36-2.38-2.07-3.48-3.87-3.48-2.26,0-3.82,1.39-4.16,3.48h0Zm24.56-5.14v11.51c0,3.75-3,5.62-6.13,5.62-2.69,0-4.71-1.03-5.7-2.93l1.83-1.03c.55,1.13,1.56,2.02,3.92,2.02,2.5,0,4.01-1.42,4.01-3.68v-1.71c-.96,1.47-2.5,2.4-4.52,2.4-3.41,0-6.13-2.76-6.13-6.27s2.72-6.25,6.13-6.25c2.02,0,3.56.91,4.52,2.38v-2.07h2.07Zm-2.07,5.94c0-2.4-1.85-4.25-4.28-4.25s-4.28,1.85-4.28,4.25,1.85,4.28,4.28,4.28,4.28-1.85,4.28-4.28Zm4.88-9.52c0-.77.62-1.42,1.42-1.42s1.39.65,1.39,1.42-.62,1.39-1.39,1.39-1.42-.62-1.42-1.39Zm.36,3.58h2.09v12.02h-2.09v-12.02h0Zm11.1,10.36c1.66,0,2.86-.77,3.46-1.75l1.78,1.01c-1.06,1.63-2.88,2.72-5.29,2.72-3.87,0-6.44-2.72-6.44-6.32s2.55-6.32,6.3-6.32,5.98,2.98,5.98,6.34c0,.31-.02.62-.07.94h-10.07c.41,2.16,2.11,3.39,4.35,3.39h0Zm-4.35-5.21h8.03c-.36-2.38-2.07-3.48-3.87-3.48-2.26,0-3.82,1.39-4.16,3.48h0Zm20.6,3.58c0,2.23-1.92,3.6-4.49,3.6-2.4,0-4.09-1.15-4.78-2.81l1.8-1.03c.38,1.15,1.49,1.87,2.98,1.87,1.27,0,2.38-.46,2.38-1.63,0-2.57-6.73-1.11-6.73-5.46,0-2.11,1.83-3.58,4.25-3.58,1.97,0,3.56.94,4.33,2.5l-1.75.99c-.46-1.08-1.51-1.54-2.57-1.54s-2.14.53-2.14,1.61c0,2.57,6.73,1.06,6.73,5.48h0Z"/>
</svg>